<svg width="200" height="202" viewBox="0 0 200 202" fill="none" xmlns="http://www.w3.org/2000/svg">
<path d="M198.784 112.348C199.662 102.485 200.889 90.9362 199.026 81.7105C197.119 72.2744 192.081 63.1311 187.686 54.8154C181.296 42.7233 174.269 32.2108 163.61 23.6779C155.863 17.4765 145.689 13.927 136.227 10.2497C127.668 6.92696 119.957 3.22205 110.348 2.38622C94.7347 1.028 79.7835 3.28802 66.0707 8.59859C52.3581 13.9078 37.2086 20.5078 27.1168 31.0409C20.4016 38.0506 15.8941 46.7196 11.417 55.5082C5.76521 66.6009 1.68042 78.8125 0.507299 91.9728C-0.395147 102.104 -0.171901 113.366 1.81409 122.819C3.82164 132.374 9.6892 141.794 14.2483 150.181C21.0906 162.763 28.3245 173.652 39.783 182.244C54.0826 192.968 71.8084 198.394 90.9235 200.058C102.254 201.043 114.652 203.437 125.106 200.805C137.083 197.792 150.11 190.338 160.009 183.355C171.583 175.192 182.776 167.144 190.045 154.789C197.349 142.38 197.421 127.645 198.784 112.348Z" fill="#E56E2B"/>
<path d="M197.516 114.3C198.634 104.557 200.139 93.1541 198.526 83.9737C196.874 74.5871 192.117 65.4108 187.974 57.0703C181.951 44.9412 175.258 34.3613 164.92 25.6538C157.406 19.3246 147.425 15.5592 138.147 11.688C129.759 8.18794 122.217 4.33046 112.725 3.26781C97.3009 1.53978 82.4428 3.41083 68.7342 8.33234C55.0246 13.2538 39.8613 19.4139 29.6057 29.5965C22.7825 36.3698 18.1021 44.8422 13.4479 53.4328C7.57602 64.2766 3.22389 76.2669 1.73251 89.265C0.584429 99.2729 0.523506 110.429 2.25189 119.836C3.99934 129.345 9.57174 138.815 13.875 147.229C20.3331 159.853 27.221 170.811 38.3497 179.598C52.2373 190.567 69.6492 196.372 88.531 198.488C99.7239 199.742 111.938 202.414 122.355 200.068C134.286 197.377 147.371 190.315 157.347 183.647C169.008 175.849 180.292 168.155 187.8 156.104C195.342 143.997 195.783 129.411 197.516 114.3Z" fill="#FAB539"/>
<path d="M195.263 114.356C196.354 104.839 197.823 93.6982 196.247 84.7309C194.635 75.5615 189.987 66.597 185.942 58.449C180.057 46.6017 173.518 36.2651 163.421 27.7583C156.08 21.5748 146.328 17.8974 137.266 14.1156C129.07 10.6966 121.702 6.92986 112.43 5.89058C97.3636 4.20241 82.8491 6.03082 69.4564 10.8382C56.0648 15.6456 41.2512 21.6642 31.2315 31.6089C24.5664 38.2282 19.9948 46.5041 15.4492 54.8967C9.71097 65.489 4.54875 76.7315 3.09146 89.4312C1.97008 99.2068 2.82147 110.574 4.51119 119.764C6.21733 129.053 11.6611 138.305 15.8642 146.523C22.173 158.856 28.9023 169.562 39.7739 178.145C53.3399 188.859 70.3502 194.531 88.7954 196.599C99.731 197.824 111.661 200.435 121.836 198.143C133.493 195.513 146.276 188.616 156.021 182.101C167.414 174.484 178.436 166.967 185.771 155.195C193.14 143.366 193.57 129.119 195.263 114.356Z" fill="#FCE591"/>
<path d="M193.549 103.578C193.549 94.2565 193.735 83.3275 191.215 74.8276C188.64 66.1339 183.151 57.9707 178.336 50.5307C171.331 39.713 163.863 30.4282 153.156 23.2961C145.372 18.112 135.535 15.6141 126.354 12.9389C118.051 10.5208 110.509 7.6765 101.428 7.6765C86.6727 7.6765 72.8418 11.0171 60.4256 17.1167C48.0086 23.215 34.3545 30.6399 25.7698 41.3421C20.0588 48.4632 16.5564 56.9603 13.0916 65.5674C8.71926 76.4318 5.90803 88.2174 5.90747 100.653C5.90747 110.228 7.05889 120.771 9.71087 129.474C12.3912 138.271 18.6819 146.627 23.6584 154.117C31.1249 165.36 38.8186 174.98 50.2825 182.104C64.5885 190.992 81.6635 194.633 99.7281 194.633C110.437 194.633 122.263 195.866 131.846 192.544C142.827 188.743 154.42 180.688 163.12 173.331C173.291 164.733 183.115 156.27 188.9 144.093C194.713 131.858 193.549 118.034 193.549 103.578Z" fill="#FAB539"/>
<path d="M190.946 113.765C191.988 104.677 193.39 94.0405 191.885 85.4788C190.348 76.7204 185.908 68.1627 182.046 60.3832C176.426 49.0692 170.184 39.2001 160.542 31.0782C153.533 25.1724 144.22 21.6628 135.567 18.0514C127.743 14.7864 120.708 11.1887 111.854 10.1962C97.4678 8.58501 83.6098 10.3309 70.8217 14.9211C58.0331 19.5113 43.889 25.259 34.3223 34.7542C27.9578 41.0739 23.592 48.9771 19.2524 56.9904C13.7734 67.1042 9.71457 78.2889 8.32321 90.4126C7.25274 99.7483 7.19515 110.154 8.80837 118.928C10.4384 127.798 15.636 136.632 19.6495 144.479C25.673 156.255 32.0991 166.477 42.4784 174.673C55.4333 184.903 71.6737 190.318 89.2862 192.292C99.7281 193.462 111.12 195.957 120.836 193.766C131.966 191.257 144.17 184.671 153.477 178.45C164.354 171.176 174.879 164 181.881 152.758C188.917 141.464 189.329 127.86 190.946 113.765Z" fill="#E56E2B"/>
<path d="M190.605 103.504C190.605 94.4764 190.783 83.8897 188.345 75.6565C185.851 67.2377 180.534 59.3303 175.868 52.1226C169.085 41.6445 161.852 32.651 151.481 25.743C143.941 20.7225 134.413 18.3031 125.519 15.7117C117.476 13.3692 110.171 10.6142 101.376 10.6142C87.0829 10.6142 73.6865 13.8503 61.6603 19.7575C49.6342 25.6647 36.4077 32.8558 28.0929 43.2226C22.5607 50.121 19.1686 58.3514 15.8129 66.6878C11.5771 77.2099 8.855 88.627 8.85445 100.672C8.85445 109.946 9.96929 120.158 12.5377 128.589C15.1348 137.109 21.2268 145.202 26.0467 152.458C33.2796 163.347 40.7321 172.665 51.8358 179.565C65.6931 188.175 82.2327 191.701 99.7293 191.701C110.103 191.701 121.556 192.896 130.841 189.679C141.476 185.994 152.705 178.194 161.133 171.068C170.983 162.74 180.499 154.544 186.103 142.748C191.733 130.897 190.605 117.507 190.605 103.504Z" fill="#FCE591"/>
<path d="M60.8911 126.237C55.1671 126.237 50.7905 122.908 46.0764 120.912C33.7645 116.856 32.8327 109.028 17.9848 109.028C14.8487 109.028 11.8739 109.642 9.30124 110.864C9.43435 112.386 9.59946 113.907 9.79614 115.415L9.81895 115.584C9.90588 116.245 9.99991 116.905 10.1005 117.561L10.1526 117.904C10.2575 118.573 10.3678 119.239 10.4862 119.899L10.509 120.038C10.6378 120.75 10.7742 121.459 10.9193 122.161L10.9818 122.453C11.0996 123.02 11.2246 123.581 11.3544 124.137C11.4002 124.333 11.4458 124.527 11.4931 124.722C11.6077 125.199 11.7277 125.673 11.8511 126.142C11.9011 126.33 11.9495 126.521 12.0011 126.708C12.1727 127.343 12.3505 127.972 12.5378 128.589C15.135 137.109 21.2269 145.202 26.0468 152.458C33.2797 163.347 40.7323 172.665 51.8359 179.565C65.6932 188.175 82.2328 191.701 99.7295 191.701C110.103 191.701 121.556 192.896 130.841 189.679C131.476 189.46 132.115 189.224 132.753 188.973C133.013 188.872 133.275 188.76 133.538 188.655C133.912 188.502 134.285 188.352 134.659 188.191C134.996 188.048 135.332 187.894 135.669 187.744C135.964 187.613 136.257 187.482 136.551 187.344C136.939 187.164 137.328 186.976 137.716 186.788C137.951 186.672 138.186 186.559 138.421 186.441C138.855 186.223 139.288 186.001 139.721 185.775C139.901 185.68 140.082 185.586 140.262 185.491C140.74 185.237 141.217 184.977 141.694 184.712L142.064 184.504C142.587 184.21 143.109 183.912 143.628 183.605L143.818 183.494C144.387 183.158 144.953 182.817 145.517 182.47C118.578 145.754 62.9048 126.237 60.8911 126.237Z" fill="#FCED9B"/>
<path d="M104.208 121.916C110.436 120.63 130.805 119.696 130.805 107.243C130.805 104.937 130.022 102.675 129.239 100.613C106.63 53.2429 78.9892 41.9592 77.0523 40.715C69.8531 36.2046 62.8283 29.0395 55.7019 22.7653C45.4469 28.1019 35.0507 34.5494 28.0931 43.2225C22.5609 50.1209 19.1688 58.3513 15.8132 66.6876C12.2403 75.5656 9.75117 85.0815 9.05737 95.073C14.8623 93.7574 21.4046 92.3964 30.6512 92.3964C61.2982 92.3964 74.5829 114.281 104.208 121.916Z" fill="#FCED9B"/>
<path d="M60.5541 112.26C53.4831 108.599 47.4239 103.609 39.6791 102.276C40.016 104.607 42.0366 105.272 43.7194 106.27C58.8704 113.923 72.3386 124.239 89.1721 127.566C87.1539 126.568 84.7962 126.236 82.7752 125.238C75.0319 120.578 68.2978 115.92 60.5541 112.26Z" fill="#FCED9B"/>
<path d="M95.6664 31.0629C87.6921 27.7677 78.7266 26.272 73.0694 20.747C75.9257 19.3626 77.767 20.5765 79.8106 21.2694C96.6804 28.4647 115.711 32.3469 128.508 44.0444C126.282 43.0697 124.645 41.3362 122.423 40.3615C112.942 37.2189 104 34.919 95.6664 31.0629Z" fill="#FCED9B"/>
<path d="M132.785 127.878C136.279 125.649 141.319 118.196 143.918 115.068C142.764 114.621 139.894 115.422 139.003 115.921C131.602 120.742 130.923 119.914 122.168 125.238C128.414 126.653 129.119 130.407 132.785 127.878Z" fill="#FCED9B"/>
<path d="M182.773 83.9747C178.582 81.8425 149.562 57.2323 146.073 54.0264L183.783 71.33C177.652 73.4636 187.219 86.4231 182.773 83.9747Z" fill="#FCED9B"/>
<path d="M152.018 90.7961C147.809 90.7961 147.009 92.6658 147.009 94.8214C147.009 100.247 148.884 109.916 148.884 117.899C148.884 133.392 143.644 133.605 132.387 133.605C129.71 133.605 126.972 133.509 124.239 133.509C86.5139 133.509 124.378 145.487 156.847 171.158C161.813 163.574 169.503 159.281 177.583 155.569C180.905 151.72 183.83 147.532 186.103 142.748C187.186 140.469 188.017 138.132 188.655 135.744C180.592 119.855 162.82 90.7961 152.018 90.7961Z" fill="#FCED9B"/>
<path d="M105.67 43.7104C107.691 45.0411 109.711 46.3718 111.732 47.7039C121.496 59.3492 128.565 72.6607 138.33 84.3073C140.268 82.391 137.908 78.6503 146.073 78.6503C161.087 80.4773 174.356 87.3152 186.1 96.1547C140.91 58.4144 105.349 39.8694 95.5621 35.0345C99.3886 37.3509 102.077 40.9775 105.67 43.7104Z" fill="#FCED9B"/>
<path d="M175.868 52.1239C169.085 41.6444 161.852 32.651 151.481 25.7444C143.941 20.7225 134.413 18.303 125.519 15.7117C117.477 13.3692 110.171 10.6142 101.376 10.6142C92.5119 10.6142 83.9938 11.861 75.9307 14.2159C114.212 22.5248 160.176 48.0383 181.256 60.595C179.492 57.6778 177.634 54.85 175.868 52.1239Z" fill="#FCED9B"/>
<path d="M32.4092 81.6294C22.0618 83.6599 16.1182 83.4908 14.7517 77.9465C13.3847 72.4009 33.3311 62.8535 39.8512 60.0091C46.3708 57.1662 66.6867 51.3869 77.7481 52.9362C113.617 57.9608 108.036 74.6293 95.3993 78.363C82.7626 82.0982 77.6481 66.7302 66.1754 65.6194C54.7007 64.51 55.0392 83.7643 47.4184 84.9246C39.7953 86.0862 37.1422 80.7015 32.4092 81.6294Z" fill="#FCE591"/>
<path d="M75.1447 84.5301C73.1245 84.9728 71.1039 84.7515 69.3082 85.4168C69.0844 85.6382 68.6344 85.8609 68.6344 86.0822C68.6344 90.0166 73.3093 90.0345 85.2457 97.6175C88.648 99.9724 89.5146 103.938 96.6501 103.938C108.65 103.938 108.928 91.6127 75.1447 84.5301Z" fill="#FCE591"/>
<path d="M173.222 132.446C171.731 130.636 171.247 128.803 169.511 127.204C169.084 127.008 168.565 126.61 168.23 126.617C162.267 126.749 164.135 130.974 157.48 142.013C155.291 145.166 149.631 146.082 152.523 152.529C157.387 163.372 176.182 163.208 173.222 132.446Z" fill="#FCE591"/>
<path d="M44.6487 168.583C42.9399 165.666 40.6839 163.517 39.388 160.614C39.3403 160.09 39.0621 159.3 39.2446 159.043C42.4819 154.505 47.2941 160.046 65.7834 165.504C71.213 166.837 75.3652 163.292 82.6891 171.786C95.0059 186.07 85.1511 200.624 44.6487 168.583Z" fill="#FCE591"/>
<path d="M48.3895 130.387C49.5555 132.782 51.2007 134.605 52.0424 136.965C52.0478 137.379 52.219 138.017 52.0597 138.208C49.2403 141.585 45.7923 136.943 31.5852 131.558C27.3966 130.188 23.9176 132.73 18.6739 125.618C9.85485 113.658 18.4858 102.798 48.3895 130.387Z" fill="#FCE591"/>
<path d="M112 71.6875C111.79 71.4057 111.585 71.1307 111.375 70.8544C111.459 70.4915 111.512 69.9842 111.512 69.422C111.512 68.3167 111.309 64.5802 111.059 64.5802C110.807 64.5802 110.604 68.3167 110.604 69.422C110.604 69.5732 110.608 69.7203 110.615 69.8619C110.394 69.5746 110.173 69.29 109.952 69.0095C110.084 66.843 110.529 63.0666 111.059 63.0666C111.69 63.0666 112.202 68.4556 112.202 70.0503C112.202 70.6579 112.127 71.2215 112 71.6875Z" fill="#FBC859"/>
<path d="M111.059 72.9384C110.426 72.9384 109.913 71.6448 109.913 70.0502C109.913 69.7903 109.926 69.4301 109.952 69.0094C110.173 69.2899 110.394 69.5745 110.615 69.8618C110.661 70.7554 110.842 71.4235 111.059 71.4235C111.181 71.4235 111.294 71.2062 111.374 70.8543C111.585 71.1306 111.79 71.4056 112 71.6874C111.795 72.4435 111.45 72.9384 111.059 72.9384Z" fill="#FCCC5D"/>
<path d="M111.375 70.8544C111.121 70.5203 110.868 70.189 110.615 69.8619C110.608 69.7203 110.604 69.5731 110.604 69.4219C110.604 68.3166 110.807 64.5802 111.059 64.5802C111.309 64.5802 111.512 68.3166 111.512 69.4219C111.512 69.9842 111.459 70.4914 111.375 70.8544Z" fill="#EF9E4E"/>
<path d="M111.059 71.4235C110.842 71.4235 110.661 70.7554 110.615 69.8619C110.868 70.189 111.121 70.5203 111.375 70.8544C111.294 71.2063 111.181 71.4235 111.059 71.4235Z" fill="#EFA252"/>
<path d="M136.31 50.3105C135.677 50.3105 135.165 49.0169 135.165 47.4236C135.165 45.8276 135.677 40.4387 136.31 40.4387C136.941 40.4387 137.455 45.8276 137.455 47.4236C137.455 49.0169 136.941 50.3105 136.31 50.3105ZM136.31 41.9523C136.058 41.9523 135.857 45.6887 135.857 46.794C135.857 47.8993 136.058 48.7956 136.31 48.7956C136.56 48.7956 136.763 47.8993 136.763 46.794C136.763 45.6887 136.56 41.9523 136.31 41.9523Z" fill="#FBC859"/>
<path d="M136.31 48.7957C136.058 48.7957 135.857 47.8993 135.857 46.794C135.857 45.6888 136.058 41.9523 136.31 41.9523C136.561 41.9523 136.764 45.6888 136.764 46.794C136.764 47.8993 136.561 48.7957 136.31 48.7957Z" fill="#EF9E4E"/>
<path d="M75.1001 39.4268C74.8789 39.2742 74.6572 39.1174 74.4366 38.9607C74.3665 37.4499 74.2074 35.4084 74.0215 35.4084C73.8591 35.4084 73.7166 36.9756 73.6368 38.3806C73.4483 38.2431 73.2614 38.1029 73.0733 37.9613C73.2788 35.9954 73.6271 33.8935 74.0221 33.8935C74.5198 33.8935 74.9419 37.2272 75.1001 39.4268Z" fill="#FBC859"/>
<path d="M74.0221 43.7654C73.389 43.7654 72.8772 42.4732 72.8772 40.8785C72.8772 40.2791 72.9495 39.145 73.0733 37.9613C73.2613 38.1029 73.4483 38.2432 73.6368 38.3807C73.5928 39.145 73.5678 39.8613 73.5678 40.2503C73.5678 41.3556 73.771 42.2505 74.0215 42.2505C74.273 42.2505 74.4751 41.3556 74.4751 40.2503C74.4751 39.9616 74.4616 39.4942 74.4366 38.9608C74.6572 39.1175 74.8789 39.2742 75.1 39.4268C75.1429 40.0234 75.1662 40.5376 75.1662 40.8785C75.1662 42.4732 74.6544 43.7654 74.0221 43.7654Z" fill="#FCCC5D"/>
<path d="M74.4367 38.9608C74.1699 38.771 73.9037 38.5772 73.6369 38.3807C73.7167 36.9757 73.8591 35.4085 74.0216 35.4085C74.2074 35.4085 74.3666 37.4499 74.4367 38.9608Z" fill="#EF9E4E"/>
<path d="M74.0214 42.2505C73.7709 42.2505 73.5677 41.3556 73.5677 40.2504C73.5677 39.8613 73.5927 39.1451 73.6366 38.3807C73.9034 38.5773 74.1697 38.7711 74.4364 38.9608C74.4615 39.4942 74.475 39.9617 74.475 40.2504C74.475 41.3556 74.2729 42.2505 74.0214 42.2505Z" fill="#EFA252"/>
<path d="M64.5945 163.783C63.9626 163.783 63.4503 162.491 63.4503 160.895C63.4503 159.301 63.9626 153.911 64.5945 153.911C65.2275 153.911 65.7383 159.301 65.7383 160.895C65.7383 162.491 65.2275 163.783 64.5945 163.783ZM64.5945 155.425C64.344 155.425 64.1408 159.161 64.1408 160.266C64.1408 161.373 64.344 162.268 64.5945 162.268C64.8461 162.268 65.0488 161.373 65.0488 160.266C65.0488 159.161 64.8461 155.425 64.5945 155.425Z" fill="#FCCC5D"/>
<path d="M64.5945 162.268C64.344 162.268 64.1407 161.373 64.1407 160.266C64.1407 159.161 64.344 155.425 64.5945 155.425C64.8461 155.425 65.0488 159.161 65.0488 160.266C65.0488 161.373 64.8461 162.268 64.5945 162.268Z" fill="#EFA252"/>
<path d="M148.319 167.332C147.685 167.332 147.175 166.04 147.175 164.445C147.175 164.313 147.177 164.155 147.184 163.978C147.421 164.143 147.654 164.308 147.891 164.474C147.952 165.257 148.119 165.819 148.318 165.819C148.465 165.819 148.595 165.511 148.678 165.035C148.91 165.2 149.146 165.369 149.378 165.536C149.208 166.59 148.798 167.332 148.319 167.332Z" fill="#FBC859"/>
<path d="M149.378 165.536C149.146 165.369 148.911 165.2 148.678 165.035C148.737 164.697 148.772 164.275 148.772 163.816C148.772 162.711 148.568 158.976 148.318 158.976C148.068 158.976 147.866 162.711 147.866 163.816C147.866 164.047 147.874 164.268 147.891 164.475C147.655 164.308 147.421 164.143 147.184 163.978C147.26 161.997 147.738 157.459 148.319 157.459C148.951 157.459 149.463 162.851 149.463 164.446C149.463 164.831 149.432 165.199 149.378 165.536Z" fill="#FCCC5D"/>
<path d="M148.318 165.819C148.119 165.819 147.952 165.257 147.891 164.475C148.153 164.66 148.417 164.848 148.679 165.035C148.595 165.511 148.466 165.819 148.318 165.819Z" fill="#EF9E4E"/>
<path d="M148.678 165.035C148.417 164.848 148.152 164.66 147.891 164.474C147.874 164.268 147.866 164.047 147.866 163.816C147.866 162.711 148.068 158.975 148.318 158.975C148.568 158.975 148.771 162.711 148.771 163.816C148.771 164.275 148.737 164.697 148.678 165.035Z" fill="#EFA252"/>
<path d="M122.841 126.846C122.21 126.846 121.698 125.553 121.698 123.959C121.698 122.75 121.991 119.364 122.409 117.793C122.666 117.682 122.921 117.566 123.171 117.448C123.643 118.799 123.986 122.653 123.986 123.959C123.986 124.025 123.985 124.089 123.983 124.153C123.726 124.304 123.462 124.46 123.188 124.623C123.254 124.275 123.295 123.823 123.295 123.329C123.295 122.225 123.093 118.489 122.841 118.489C122.591 118.489 122.388 122.225 122.388 123.329C122.388 124.018 122.467 124.624 122.587 124.984C122.449 125.068 122.31 125.152 122.168 125.239C122.744 125.368 123.273 125.519 123.761 125.683C123.552 126.389 123.218 126.846 122.841 126.846Z" fill="#FBC859"/>
<path d="M122.409 117.793C122.543 117.291 122.689 116.974 122.842 116.974C122.957 116.974 123.067 117.15 123.171 117.448C122.921 117.566 122.666 117.681 122.409 117.793Z" fill="#FCCC5D"/>
<path d="M123.761 125.683C123.273 125.519 122.744 125.368 122.168 125.239C122.31 125.152 122.449 125.068 122.587 124.984C122.659 125.204 122.747 125.332 122.841 125.332C122.981 125.332 123.106 125.057 123.188 124.623C123.462 124.46 123.726 124.304 123.983 124.153C123.968 124.724 123.887 125.25 123.761 125.683Z" fill="#FCCC5D"/>
<path d="M122.587 124.984C122.467 124.624 122.388 124.018 122.388 123.329C122.388 122.225 122.591 118.488 122.841 118.488C123.093 118.488 123.295 122.225 123.295 123.329C123.295 123.822 123.255 124.275 123.188 124.622C122.993 124.739 122.791 124.86 122.587 124.984Z" fill="#EF9E4E"/>
<path d="M122.841 125.332C122.747 125.332 122.659 125.204 122.587 124.984C122.791 124.86 122.993 124.739 123.188 124.623C123.106 125.057 122.981 125.332 122.841 125.332Z" fill="#EFA252"/>
<path d="M79.4089 112.869C78.8579 112.869 78.3988 111.889 78.2902 110.581C78.5895 110.757 78.889 110.932 79.19 111.108C79.2546 111.266 79.3296 111.355 79.4089 111.355C79.4464 111.355 79.4833 111.336 79.5181 111.298C79.7833 111.45 80.0468 111.603 80.313 111.755C80.1038 112.433 79.7768 112.869 79.4089 112.869Z" fill="#FBC859"/>
<path d="M80.3127 111.755C80.0464 111.603 79.783 111.45 79.5177 111.297C79.7161 111.082 79.8623 110.294 79.8623 109.352C79.8623 108.248 79.6602 104.512 79.4085 104.512C79.158 104.512 78.9554 108.248 78.9554 109.352C78.9554 110.108 79.05 110.765 79.1896 111.108C78.8886 110.932 78.5891 110.757 78.2898 110.581C78.2735 110.389 78.2648 110.188 78.2648 109.983C78.2648 108.387 78.7761 102.998 79.4085 102.998C80.0416 102.998 80.5534 108.387 80.5534 109.983C80.5534 110.651 80.4632 111.266 80.3127 111.755Z" fill="#FCCC5D"/>
<path d="M79.4074 111.355C79.3285 111.355 79.2539 111.266 79.1896 111.108C79.2976 111.17 79.4079 111.234 79.516 111.297C79.4814 111.336 79.4447 111.355 79.4074 111.355Z" fill="#EF9E4E"/>
<path d="M79.5176 111.297C79.4089 111.234 79.2981 111.169 79.1894 111.107C79.0498 110.765 78.9552 110.108 78.9552 109.352C78.9552 108.248 79.1579 104.512 79.4084 104.512C79.66 104.512 79.8621 108.248 79.8621 109.352C79.8621 110.294 79.7159 111.081 79.5176 111.297Z" fill="#EFA252"/>
<path d="M68.8787 2.92808e-06C68.8697 0.00452555 68.8562 0.00453438 68.8517 0.009057C68.8607 0.00453438 68.8697 0.00452555 68.8787 2.92808e-06ZM68.5458 0.0950154L68.5413 0.0994873C68.5413 0.0994873 68.5458 0.0995381 68.5458 0.0950154Z" fill="#EEDDBC"/>
<path d="M76.5027 17.7788C30.0464 31.021 3.12328 79.4614 16.3791 125.981C29.6349 172.489 78.0449 199.465 124.497 186.223C170.958 172.991 197.876 124.551 184.62 78.034C171.369 31.5184 122.959 4.54558 76.5027 17.7788Z" fill="#A42021"/>
<path d="M82.9252 23.9252C67.788 28.2353 54.3287 34.6167 45.2428 45.5614C37.5996 54.7514 37.5996 65.3207 35.1302 77.0556C32.29 90.5809 28.0658 105.475 33.2759 119.725C38.1151 132.934 48.6709 144.013 58.5393 152.974C70.0177 163.386 82.3825 170.047 97.4655 173.142C108.691 175.445 120.775 174.414 132.434 171.718C141.697 169.568 148.386 164.84 155.73 159.933C163.744 154.581 169.443 148.237 174.694 140.4C181.274 130.573 181.505 121.409 182.703 109.212C183.639 99.8523 185.078 91.0527 182.269 81.2019C177.412 64.1404 170.791 48.8403 157.557 38.1081C136.735 21.2297 109.559 16.3317 82.9252 23.9252Z" fill="#BD2D2D"/>
<path d="M79.5648 123.218C79.5648 125.912 72.4463 128.514 65.4905 119.757C57.6799 109.931 45.107 101.988 43.1487 100.424C43.0764 100.364 43.0402 100.313 43.0402 100.271C43.0402 99.2108 65.8432 103.755 79.2347 122.249C79.4563 122.561 79.5648 122.889 79.5648 123.218Z" fill="#C93131"/>
<path d="M126.524 121.274C126.524 122.344 103.865 117.022 91.1072 98.0656C90.9082 97.7653 90.8132 97.4487 90.8132 97.138C90.8132 94.4227 98.0584 91.9777 104.756 101.03C112.228 111.116 124.52 119.493 126.42 121.12C126.492 121.182 126.524 121.233 126.524 121.274Z" fill="#C93131"/>
<path d="M175.82 104.05C175.82 122.472 170.14 137.192 158.128 137.872C153.754 138.123 140.119 104.302 118.433 79.9807C96.6383 55.5292 67.0469 40.2744 67.0469 36.5839C67.0469 36.5342 67.0514 36.4844 67.065 36.4347C68.7338 29.6734 127.569 9.47989 156.02 43.5397C168.932 58.989 175.82 83.7634 175.82 104.05Z" fill="#C93131"/>
<path d="M70.488 106.196L109.717 145.119C129.422 160.905 135.645 135.275 151.637 144.136C156.576 146.876 131.688 160.978 134.718 164.038C137.527 171.631 132.064 175.272 130.793 184.16C142.28 171.677 151.94 173.396 161.917 159.395C163.505 155.687 132.294 182.762 159.448 146.102C171.293 130.113 143.574 133.812 137.283 139.918C119.066 157.582 92.1333 115.535 70.6328 106.058L70.488 106.196Z" fill="#A42021"/>
<path d="M153.325 91.2657C143.348 69.3152 132.883 52.743 121.192 48.2746C133.521 62.4078 143.927 76.9101 153.325 91.2657Z" fill="#A42021"/>
<path d="M29.418 72.6241C33.9361 69.3203 39.0558 66.9572 44.406 65.7497C62.2071 61.7381 78.4885 73.387 100.016 82.5964C81.3287 70.9615 56.504 48.0255 44.6819 50.6939C36.2246 52.6069 32.4798 64.9944 29.418 72.6241Z" fill="#A42021"/>
<path d="M88.9949 151.157C89.7502 151.1 90.5145 151 91.2743 150.827C90.4648 150.977 89.7185 151.085 88.9949 151.157Z" fill="#A42021"/>
<path d="M60.3796 130.359C63.4188 134.035 67.2133 138.132 72.8983 142.591C69.9359 138.927 66.3676 134.546 60.3796 130.359Z" fill="#A42021"/>
<path d="M24.304 108.642C24.7743 110.712 24.824 113.18 25.2537 115.094C25.6562 116.847 26.3617 118.135 27.9989 118.225C43.7286 121.14 53.6105 125.625 60.3809 130.358C52.1814 120.44 49.5085 113.621 30.1698 111.349C26.5201 111.259 23.6256 105.599 24.304 108.642Z" fill="#A42021"/>
<path d="M88.9954 151.157C87.2271 151.3 85.5311 151.11 84.2286 150.286C79.7467 147.619 76.0472 145.053 72.8995 142.591C77.3995 148.155 80.5969 152.063 88.9954 151.157Z" fill="#A42021"/>
<path d="M182.725 94.0079C184.512 94.0079 185.983 92.5576 186 90.7748C186.006 89.9035 185.672 89.0781 185.063 88.459C184.449 87.8342 183.633 87.4902 182.759 87.4788C182.489 87.0087 182.156 86.2864 181.8 85.4151C182.415 84.8247 182.805 83.9993 182.817 83.0878C182.834 81.3911 181.541 79.9809 179.887 79.8089C179.824 79.5682 179.76 79.3331 179.703 79.1039C180.864 78.5306 181.616 77.2982 181.513 75.9339L180.818 66.7622C180.685 64.9852 179.123 63.6209 177.307 63.7527C177.06 63.7699 176.819 63.8215 176.589 63.8903C176.417 63.5177 176.239 63.2254 176.066 63.0305C175.773 62.7094 175.118 62.4802 174.262 62.3139L175.078 60.021C175.371 59.2013 175.325 58.3128 174.952 57.5274C174.578 56.7421 173.917 56.146 173.09 55.8536C172.734 55.7275 172.366 55.6644 171.993 55.6644C170.711 55.6644 169.557 56.4154 169.022 57.5561L168.126 54.7358C167.689 53.3715 166.437 52.4601 165.006 52.4601C164.673 52.4601 164.334 52.5117 164.012 52.6148C163.467 52.7868 162.99 53.0906 162.605 53.5091L162.461 53.297C163.128 52.8441 163.604 52.162 163.794 51.3767L164.949 50.9181C165.759 50.5971 166.402 49.978 166.747 49.1755C167.092 48.3729 167.109 47.4902 166.787 46.6762C166.288 45.4208 165.093 44.6125 163.742 44.6125C163.329 44.6125 162.927 44.6928 162.536 44.8418L162.249 44.9565L160.169 38.4274C159.732 37.0631 158.48 36.1517 157.049 36.1517C156.716 36.1517 156.377 36.2032 156.055 36.3064C155.222 36.5701 154.544 37.1433 154.142 37.9172C153.74 38.6911 153.665 39.5738 153.929 40.405L154.263 41.4426C153.872 41.3853 153.475 41.3967 153.096 41.4712C153.102 40.1069 152.234 38.8458 150.919 38.3815C150.563 38.2554 150.195 38.1924 149.821 38.1924C148.54 38.1924 147.385 38.9433 146.851 40.084L146.42 38.7369C146.592 37.2981 145.794 35.9052 144.455 35.3377C144.254 35.2517 144.042 35.1886 143.823 35.1428C143.438 35.0224 143.042 34.9708 142.64 34.9937L144.915 33.3772C145.627 32.8728 146.098 32.1218 146.248 31.262C146.391 30.4021 146.196 29.5366 145.69 28.8258C145.076 27.9659 144.082 27.45 143.019 27.45C142.335 27.45 141.68 27.6564 141.123 28.0519L132.281 34.3288L131.884 34.0364L135.441 25.673C136.147 24.0163 135.366 22.096 133.706 21.391C133.298 21.219 132.867 21.133 132.43 21.133C131.114 21.133 129.931 21.9126 129.414 23.1221L126.403 30.1958C126.059 29.9951 125.725 29.8174 125.409 29.6569L127.104 25.673C127.443 24.8705 127.455 23.982 127.127 23.1737C126.8 22.3654 126.179 21.7292 125.369 21.391C124.961 21.219 124.53 21.133 124.094 21.133C122.778 21.133 121.594 21.9126 121.077 23.1221L120.032 25.5813L119.245 24.9278L119.894 22.6234C120.382 20.8922 119.365 19.0866 117.624 18.5993C117.337 18.5191 117.038 18.4789 116.74 18.4789C115.585 18.4789 114.533 19.0923 113.953 20.0439C113.212 19.4821 112.379 18.9605 111.488 18.5248C110.908 17.6134 109.891 17.0057 108.725 17.0057C108.259 17.0057 107.823 17.1032 107.421 17.2752C105.858 17.086 104.266 17.2465 102.767 17.9172C100.836 18.7827 99.0841 19.4706 97.5157 19.9407C97.3548 18.2898 95.9529 17 94.258 17C92.454 17 90.9832 18.4675 90.9832 20.2674C90.4546 20.0611 89.7652 19.9751 88.9895 19.9751C88.3978 19.0636 87.3694 18.4789 86.2433 18.4789C85.9445 18.4789 85.6458 18.5191 85.3585 18.5993C84.5139 18.8343 83.8187 19.3846 83.3878 20.1413C83.204 20.468 83.0833 20.8177 83.0201 21.1789C82.279 21.4655 81.6527 21.7865 81.2218 22.1018C80.6186 21.4941 79.7855 21.133 78.895 21.133C78.4526 21.133 78.0274 21.219 77.6195 21.391C76.2578 21.9699 75.4937 23.3629 75.6488 24.7558C75.2064 24.8189 74.764 24.8647 74.3331 24.8934L73.5805 23.1164C73.0634 21.9069 71.8856 21.1273 70.5642 21.1273C70.1218 21.1273 69.6966 21.2132 69.2887 21.3852C67.6685 22.0731 66.8929 23.9132 67.5077 25.5411C64.9452 26.0513 62.4747 26.8825 61.8715 28.0462C61.3142 27.6506 60.6592 27.4443 59.9755 27.4443C58.9184 27.4443 57.9187 27.9602 57.3039 28.82C56.7983 29.5308 56.5972 30.3964 56.7466 31.2563C56.8902 32.1161 57.3671 32.867 58.0795 33.3715L60.3547 34.988C59.9583 34.9651 59.5561 35.0167 59.1712 35.137C58.9528 35.1829 58.7402 35.2459 58.5392 35.3319C57.2005 35.8994 56.3961 37.2924 56.5742 38.7312L56.4938 38.9834L55.6952 39.3732C55.0862 38.6395 54.167 38.1866 53.1787 38.1866C52.8053 38.1866 52.4376 38.2497 52.0814 38.3758C50.7657 38.8401 49.9039 40.1012 49.9039 41.4655C49.5247 41.3852 49.1225 41.3738 48.7376 41.4368L49.0708 40.3993C49.6166 38.6853 48.6629 36.8453 46.945 36.3007C46.6233 36.1975 46.2901 36.1459 45.9511 36.1459C44.5205 36.1459 43.268 37.0631 42.8314 38.4216L40.7515 44.9507L40.4643 44.8361C40.0793 44.6813 39.6714 44.6068 39.2577 44.6068C37.9076 44.6068 36.7126 45.4151 36.2127 46.6704C35.5865 48.2468 36.2759 50.0181 37.7582 50.7748C37.1779 51.6346 36.6149 52.4429 36.2012 52.9874C35.5922 53.3887 35.1153 53.9906 34.8798 54.7301L33.9835 57.5504C33.4549 56.4039 32.2944 55.6587 31.0132 55.6587C30.6397 55.6587 30.272 55.7218 29.9158 55.8479C29.0942 56.1402 28.4335 56.7364 28.0543 57.5217C27.6809 58.307 27.6349 59.1955 27.9279 60.0153L29.5424 64.5438C29.0712 64.7845 28.6461 65.0425 28.2611 65.3291C28.1635 65.1686 28.0601 65.0196 27.9337 64.8763C27.3649 64.217 26.572 63.8158 25.6987 63.747C23.8889 63.6152 22.3262 64.9794 22.1883 66.7565L21.4931 75.9282C21.4299 76.7995 21.7057 77.6421 22.2745 78.3013C22.8433 78.9606 23.6361 79.3618 24.5094 79.4306C24.5956 79.4363 24.676 79.4421 24.7565 79.4421C25.4976 79.4421 26.1928 79.1898 26.7444 78.7599C26.7673 79.1039 26.7673 79.4363 26.7386 79.7573L23.4235 79.786C21.6195 79.8032 20.1659 81.2821 20.1832 83.0821C20.1947 84.1712 20.7462 85.1343 21.5793 85.7189C21.2001 86.3094 20.9128 86.9055 20.7232 87.4673L20.2406 87.473C19.3673 87.4788 18.5457 87.8284 17.9367 88.4475C17.322 89.0723 16.9888 89.8921 17.0002 90.7634C17.0175 92.5461 18.4825 93.9964 20.2751 93.9964L22.4468 93.9792C22.1826 96.2205 21.1714 98.972 20.3325 100.147C19.5914 100.611 19.0743 101.334 18.879 102.182C18.6836 103.031 18.833 103.908 19.2984 104.647C19.9016 105.604 20.9358 106.178 22.0734 106.178C22.3836 106.178 22.6881 106.132 22.9812 106.051C23.7281 107.209 24.2394 108.299 23.9176 109.107C23.3086 109.732 22.9754 110.557 22.9869 111.428L23.1018 120.623C23.1248 122.4 24.5899 123.85 26.3767 123.85H26.3996C26.3996 123.85 26.4169 123.85 26.4226 123.85C26.8305 123.845 27.2155 123.764 27.5774 123.621C27.6177 123.776 27.6521 123.931 27.6809 124.074L25.377 124.297C23.5787 124.469 22.263 126.069 22.4353 127.863C22.5732 129.279 23.5959 130.414 24.9461 130.723C24.4807 131.365 24.2624 132.151 24.3371 132.953C24.4979 134.633 25.8998 135.905 27.5889 135.905C27.6981 135.905 27.8015 135.9 27.9107 135.888L37.8674 134.925L28.4795 142.01C27.7843 142.538 27.3304 143.3 27.2097 144.166C27.0891 145.031 27.3132 145.891 27.8417 146.585C28.468 147.41 29.416 147.88 30.4559 147.88C31.174 147.88 31.8577 147.651 32.4265 147.221L36.6838 144.005C36.5977 144.315 36.5287 144.596 36.4942 144.831C35.6267 144.917 34.8396 145.329 34.2823 146.006C33.725 146.676 33.4664 147.53 33.5526 148.396C33.7135 150.076 35.1153 151.348 36.8045 151.348C36.9136 151.348 37.0171 151.342 37.1262 151.331L43.3082 150.735C43.7506 151.251 44.3366 151.612 44.9916 151.778C44.5205 153.125 44.9859 154.639 46.1637 155.493L48.5652 157.23C46.9048 157.419 45.6294 158.852 45.6696 160.549C45.7098 162.308 47.1806 163.741 48.9387 163.741L55.1379 163.598C55.2586 164.103 55.385 164.596 55.5114 165.066C55.3103 165.025 55.0977 165.003 54.8909 165.003C53.5637 165.003 52.3744 165.794 51.8688 167.015C51.5356 167.823 51.5298 168.706 51.8631 169.514C52.1963 170.322 52.8225 170.947 53.6326 171.285L62.1415 174.816C62.5437 174.982 62.9631 175.068 63.394 175.068C64.7212 175.068 65.9104 174.277 66.416 173.056C66.5827 172.661 66.6631 172.242 66.6688 171.83C66.8297 171.864 66.9848 171.899 67.14 171.933L66.416 174.191C66.1518 175.023 66.2207 175.905 66.6229 176.679C67.0251 177.453 67.703 178.026 68.5361 178.296C68.8578 178.399 69.1968 178.451 69.5358 178.451C70.9664 178.451 72.2189 177.539 72.6498 176.181L72.7589 175.837C73.0577 176.181 73.3622 176.473 73.6609 176.708L72.7302 179.62C72.1786 181.334 73.1324 183.174 74.8502 183.724C75.172 183.827 75.5109 183.879 75.8499 183.879C77.2805 183.879 78.533 182.968 78.9639 181.609L81.7619 172.879C81.9055 172.867 82.0492 172.85 82.1928 172.839L84.8242 183.512C85.1861 184.974 86.4903 186 88.0014 186C88.2656 186 88.5299 185.966 88.7885 185.903C90.5408 185.473 91.6152 183.701 91.1843 181.953L89.1274 173.624C92.1265 176.353 98.0385 183.306 103.692 180.858C103.767 181.603 104.088 182.326 104.663 182.887C105.278 183.484 106.088 183.81 106.944 183.81C107.834 183.81 108.673 183.461 109.294 182.819L112.712 179.305C112.442 180.061 112.448 180.875 112.752 181.626C113.252 182.87 114.447 183.673 115.786 183.673C116.205 183.673 116.619 183.592 117.01 183.432L125.559 179.993C127.231 179.316 128.046 177.413 127.369 175.745C127.121 175.137 126.708 174.633 126.196 174.283C126.444 174.146 126.668 173.985 126.869 173.79L129.046 178.084C129.603 179.19 130.724 179.878 131.971 179.878C132.488 179.878 132.982 179.758 133.441 179.528C135.05 178.714 135.699 176.748 134.889 175.143L132.729 170.884C133.2 171.01 133.688 171.136 134.183 171.257L137.365 177.539C137.923 178.645 139.043 179.333 140.29 179.333C140.807 179.333 141.301 179.213 141.761 178.984C143.369 178.17 144.019 176.203 143.208 174.598L141.674 171.572C141.864 171.428 142.013 171.257 142.105 171.044C142.651 169.818 143.789 169.651 144.955 169.543L148.718 171.853C149.235 172.168 149.827 172.34 150.43 172.34C151.579 172.34 152.619 171.761 153.223 170.786C153.682 170.041 153.82 169.17 153.619 168.322C153.418 167.473 152.895 166.757 152.148 166.298L151.798 166.08C152.068 165.88 152.303 165.645 152.504 165.369C152.602 165.238 152.688 165.094 152.763 164.951L161.226 164.131C162.093 164.045 162.881 163.633 163.438 162.956C163.995 162.285 164.254 161.431 164.168 160.566C164.007 158.886 162.605 157.614 160.916 157.614C160.812 157.614 160.703 157.619 160.594 157.631C160.881 156.536 161.22 155.584 161.64 154.782L164.478 158.261C165.104 159.029 166.029 159.465 167.017 159.465C167.764 159.465 168.5 159.207 169.08 158.731C169.758 158.181 170.183 157.401 170.269 156.53C170.361 155.665 170.102 154.811 169.551 154.134L167.345 151.428C169.959 150.999 172.998 150.391 171.562 148.322C171.912 148.442 172.274 148.505 172.642 148.505C174.032 148.505 175.273 147.628 175.733 146.321C176.33 144.624 175.428 142.755 173.728 142.159L172.268 141.649C172.705 140.95 173.176 140.331 173.596 139.849C174.325 139.477 174.911 138.829 175.199 138.021C175.739 136.479 175.043 134.805 173.642 134.06C173.613 133.79 173.584 133.521 173.567 133.246C174.86 133.062 175.94 132.122 176.273 130.832L178.577 121.93C179.025 120.193 177.979 118.416 176.244 117.957C176.256 117.614 176.267 117.35 176.279 117.195C176.319 116.759 175.733 115.372 175.199 113.859L175.325 113.704C175.865 113.022 176.112 112.168 176.009 111.302C175.905 110.437 175.474 109.663 174.791 109.118C176.348 107.897 180.927 106.218 180.927 106.218C182.064 106.218 183.098 105.644 183.702 104.687C184.167 103.948 184.316 103.071 184.121 102.222C183.926 101.374 183.409 100.652 182.668 100.187L180.203 98.6453C180.381 96.4842 181.042 94.5868 182.725 94.0079Z" fill="#FDF1C4"/>
</svg>
