<svg xmlns="http://www.w3.org/2000/svg" xml:space="preserve" viewBox="0 0 501.551 501.551">
<path fill="#ff7058" d="M478.563 266.449c-2.09 129.567-108.669 235.102-239.282 235.102C106.58 501.551 0 393.927 0 262.269 0 131.657 104.49 25.078 235.102 22.988v243.461h243.461z" />
<path fill="#ffd15c" d="M235.102 266.449h199.575c-2.09 105.535-88.816 190.171-194.351 190.171-107.624 0-195.396-87.771-195.396-195.396 0-105.535 84.637-191.216 190.171-194.351v199.576z" />
<circle cx="114.939" cy="205.845" r="15.673" fill="#f8b64c" />
<g fill="#f2f2f2">
<path d="M191.216 118.073c0-10.449-8.359-17.763-17.763-17.763-10.449 0-17.763 8.359-17.763 17.763 0 3.135 4.18 5.224 10.449 6.269v17.763h15.673v-17.763c5.225.001 9.404-2.089 9.404-6.269zM153.6 405.42c6.269-6.269 6.269-16.718 0-22.988-6.269-6.269-16.718-6.269-22.988 0-2.09 2.09-1.045 6.269 2.09 11.494l-11.494 11.494 10.449 9.404 11.494-11.494c4.18 3.135 8.359 4.18 10.449 2.09z" />
  </g>
<g fill="#ff7058">
<path d="M275.853 317.649c-9.404 0-16.718 7.314-16.718 16.718s7.314 16.718 16.718 16.718 16.718-7.314 16.718-16.718-7.314-16.718-16.718-16.718zm0 27.167c-6.269 0-10.449-4.18-10.449-10.449s4.18-10.449 10.449-10.449 10.449 4.18 10.449 10.449-5.224 10.449-10.449 10.449zM109.714 323.918c-8.359 0-15.673 7.314-15.673 15.673s7.314 15.673 15.673 15.673 15.673-7.314 15.673-15.673c-1.044-8.358-7.314-15.673-15.673-15.673zm0 25.078c-5.224 0-9.404-4.18-9.404-9.404s4.18-9.404 9.404-9.404 9.404 4.18 9.404 9.404-4.179 9.404-9.404 9.404zM403.331 115.984l31.347-31.347c40.751 41.796 65.829 98.22 66.874 160.914H273.763l129.568-129.567z" />
  </g>
<path fill="#ffd15c" d="M273.763 245.551 403.33 115.984c32.392 33.437 52.245 79.412 53.29 129.567H273.763z" />
<path fill="#f2f2f2" d="M440.947 229.878c7.314-6.269 8.359-17.763 2.09-25.078-6.269-7.314-17.763-8.359-25.078-2.09-3.135 2.09-2.09 7.314 1.045 12.539l-13.584 11.494 9.404 11.494 13.584-11.494c5.225 3.135 10.449 5.224 12.539 3.135z" />
<g fill="#ff7058">
<path d="M342.727 203.755c-9.404 0-16.718 7.314-16.718 16.718s7.314 16.718 16.718 16.718 16.718-7.314 16.718-16.718-7.314-16.718-16.718-16.718zm0 28.212c-6.269 0-10.449-4.18-10.449-10.449s5.224-10.449 10.449-10.449c6.269 0 10.449 5.224 10.449 10.449s-5.225 10.449-10.449 10.449zM394.971 157.78c-9.404 0-16.718 7.314-16.718 16.718s7.314 16.718 16.718 16.718 16.718-7.314 16.718-16.718c.001-9.404-7.313-16.718-16.718-16.718zm0 28.212c-6.269 0-10.449-5.224-10.449-10.449 0-6.269 4.18-10.449 10.449-10.449s10.449 4.18 10.449 10.449c0 5.224-4.179 10.449-10.449 10.449z" />
  </g>
<g fill="#f8b64c">
<circle cx="202.71" cy="355.265" r="19.853" />
<circle cx="376.163" cy="334.367" r="19.853" />
  </g>
<path fill="#ff7058" d="M385.567 98.22 256 227.788V0c62.694 1.045 119.118 26.122 160.914 66.873L385.567 98.22z" />
<path fill="#ffd15c" d="M385.567 98.22 256 227.788V44.931c50.155 1.045 95.086 20.898 129.567 53.289z" />
<path fill="#ff7058" d="M341.682 82.547c-9.404 0-16.718 7.314-16.718 16.718s7.314 16.718 16.718 16.718 16.718-7.314 16.718-16.718-7.314-16.718-16.718-16.718zm0 27.167c-6.269 0-10.449-4.18-10.449-10.449s4.18-10.449 10.449-10.449 10.449 5.224 10.449 10.449c0 6.27-4.18 10.449-10.449 10.449z" />
<g fill="#f8b64c">
<circle cx="288.392" cy="147.331" r="19.853" />
<path d="M303.02 71.053c-1.045 3.135-4.18 5.224-7.314 4.18-10.449-3.135-21.943 3.135-24.033 13.584-1.045 3.135-4.18 5.224-7.314 4.18-3.135-1.045-5.224-4.18-4.18-7.314 5.224-16.718 21.943-26.122 38.661-21.943 3.135 1.044 5.225 4.178 4.18 7.313zM339.592 322.873c-3.135 0-5.224-3.135-5.224-6.269 2.09-10.449-5.224-20.898-16.718-22.988-3.135 0-5.224-3.135-5.224-6.269s3.135-5.224 6.269-5.224c16.718 3.135 28.212 18.808 26.122 35.527 1.044 4.179-2.09 6.268-5.225 5.223z" />
<circle cx="248.686" cy="288.392" r="14.629" />
  </g>
<path fill="#f2f2f2" d="M78.367 306.155c-9.404-1.045-15.673-9.404-13.584-18.808 1.045-9.404 9.404-15.673 18.808-13.584 3.135 0 4.18 5.224 5.224 10.449l15.673 2.09-2.09 13.584-16.718-2.09c-1.043 5.224-4.178 9.404-7.313 8.359z" />
<g fill="#f8b64c">
<circle cx="239.282" cy="412.735" r="20.898" />
<path d="M297.796 377.208c-3.135 0-5.224 3.135-4.18 6.269 2.09 9.404-5.224 18.808-14.629 20.898-3.135 0-5.224 3.135-4.18 6.269 0 3.135 3.135 5.224 6.269 4.18 15.673-2.09 26.122-16.718 24.033-32.392-1.044-3.134-4.178-5.224-7.313-5.224zM138.971 252.865c-3.135 0-5.224 3.135-4.18 6.269 2.09 9.404-5.224 18.808-14.629 20.898-3.135 0-5.224 3.135-4.18 6.269 0 3.135 3.135 5.224 6.269 4.18 15.673-2.09 26.122-16.718 24.033-32.392-1.043-4.179-4.178-6.269-7.313-5.224zM224.653 187.037c-2.09 2.09-6.269 2.09-8.359-1.045-7.314-8.359-19.853-9.404-28.212-2.09-2.09 2.09-6.269 2.09-8.359-1.045-2.09-2.09-2.09-6.269 1.045-8.359 13.584-11.494 32.392-9.404 43.886 3.135 2.089 4.179 2.089 7.314-.001 9.404zM213.159 270.629c-2.09 2.09-6.269 2.09-8.359-1.045-7.314-8.359-19.853-9.404-28.212-2.09-2.09 2.09-6.269 2.09-8.359-1.045-2.09-2.09-2.09-6.269 1.045-8.359 13.584-11.494 32.392-9.404 43.886 3.135 3.134 4.179 2.089 7.314-.001 9.404z" />
  </g>
</svg>